<!-- Generated by IcoMoon.io -->
<svg version="1.1" xmlns="http://www.w3.org/2000/svg" width="1024" height="1024" viewBox="0 0 1024 1024">
<title></title>
<g id="icomoon-ignore">
</g>
<path d="M512 102.4c-226.202 0-409.6 183.398-409.6 409.6 0 191.932 132.164 352.529 310.34 396.971-1.911-5.53-3.14-11.947-3.14-19.9v-70.007c-16.623 0-44.476 0-51.473 0-28.023 0-52.941-12.049-65.024-34.441-13.414-24.883-15.735-62.942-48.981-86.221-9.865-7.748-2.355-16.589 9.011-15.394 20.992 5.939 38.4 20.343 54.784 41.711 16.316 21.402 23.996 26.249 54.477 26.249 14.78 0 36.898-0.853 57.719-4.13 11.196-28.433 30.549-54.613 54.204-66.97-136.397-14.029-201.489-81.886-201.489-174.012 0-39.663 16.896-78.029 45.602-110.353-9.421-32.085-21.265-97.519 3.618-122.436 61.372 0 98.475 39.799 107.383 50.551 30.583-10.479 64.171-16.418 99.465-16.418 35.362 0 69.086 5.939 99.738 16.486 8.806-10.684 45.943-50.62 107.452-50.62 24.986 24.951 13.005 90.658 3.482 122.675 28.535 32.256 45.329 70.519 45.329 110.114 0 92.058-64.99 159.881-201.182 173.978 37.478 19.558 64.819 74.513 64.819 115.917v93.321c0 3.55-0.785 6.11-1.195 9.148 159.607-55.945 274.261-207.497 274.261-386.219 0-226.202-183.398-409.6-409.6-409.6z"></path>
</svg>
