<!-- Generated by IcoMoon.io -->
<svg version="1.1" xmlns="http://www.w3.org/2000/svg" width="1024" height="1024" viewBox="0 0 1024 1024">
<title></title>
<g id="icomoon-ignore">
</g>
<path d="M1025.28 213.76c-37.84 16.8-78.4 28.080-121.040 33.2 43.52-26.080 76.96-67.36 92.64-116.48-40.64 24.080-85.84 41.6-133.76 51.040-38.4-40.96-93.12-66.48-153.68-66.48-116.32 0-210.64 94.24-210.64 210.56 0 16.48 1.92 32.56 5.52 48-175.040-8.8-330.16-92.64-434.080-220.080-18.16 31.2-28.48 67.36-28.48 105.92 0 73.040 37.12 137.52 93.68 175.36-34.56-1.12-67.040-10.64-95.44-26.4 0 0.88 0 1.76 0 2.64 0 102.080 72.64 187.12 168.88 206.56-17.6 4.8-36.24 7.36-55.44 7.36-13.6 0-26.8-1.28-39.68-3.84 26.88 83.6 104.64 144.64 196.72 146.32-72 56.48-162.8 90.080-261.52 90.080-17.040 0-33.76-0.96-50.16-2.96 93.12 59.84 203.84 94.64 322.8 94.64 387.36 0 599.2-320.88 599.2-599.12 0-9.12-0.24-18.32-0.56-27.28 41.12-29.68 76.8-66.8 105.040-109.040z"></path>
</svg>
